<?xml version="1.0" encoding="iso-8859-1"?>
<!-- Uploaded to: SVG Repo, www.svgrepo.com, Generator: SVG Repo Mixer Tools -->
<svg height="800px" width="800px" version="1.1" id="Layer_1" xmlns="http://www.w3.org/2000/svg" xmlns:xlink="http://www.w3.org/1999/xlink" 
	 viewBox="0 0 512 512" xml:space="preserve">
<g>
	<path style="fill:#D2D5D7;" d="M414.888,293.236c2.588-12.018,4.022-24.455,4.022-37.236c0-6.293-0.354-12.493-0.996-18.618h65.378
		c-9.514-124.965-113.85-223.418-241.254-223.418C108.367,13.964,0,122.331,0,256s108.367,242.036,242.036,242.036
		c121.009,0,221.268-88.809,239.178-204.8H414.888z"/>
	<path style="fill:#F2F2F2;" d="M242.036,432.873c-97.531,0-176.873-79.341-176.873-176.873S144.505,79.127,242.036,79.127
		S418.909,158.469,418.909,256S339.568,432.873,242.036,432.873"/>
	<path style="fill:#6A3311;" d="M242.036,395.636C165.041,395.636,102.4,332.995,102.4,256s62.641-139.636,139.636-139.636
		S381.673,179.004,381.673,256S319.032,395.636,242.036,395.636"/>
	<path style="fill:#A46F3E;" d="M242.036,367.709c-5.139,0-9.309-4.17-9.309-9.309c0-5.139,4.17-9.309,9.309-9.309
		c51.33,0,93.091-41.761,93.091-93.091c0-5.139,4.171-9.309,9.309-9.309c5.139,0,9.309,4.17,9.309,9.309
		C353.745,317.598,303.635,367.709,242.036,367.709"/>
	<path style="fill:#F2F2F2;" d="M484.073,237.382h-66.16c0.642,6.125,0.996,12.325,0.996,18.618c0,12.781-1.434,25.218-4.022,37.236
		h69.185c15.425,0,27.927-12.502,27.927-27.927S499.498,237.382,484.073,237.382"/>
	<path style="fill:#A46F3E;" d="M195.491,172.218L195.491,172.218c-15.425,0-27.927,12.502-27.927,27.927
		c0,15.425,12.502,27.927,27.927,27.927h27.927v-27.927C223.418,184.72,210.916,172.218,195.491,172.218"/>
</g>
</svg>