<?xml version="1.0" encoding="iso-8859-1"?>

<!DOCTYPE svg PUBLIC "-//W3C//DTD SVG 1.1//EN" "http://www.w3.org/Graphics/SVG/1.1/DTD/svg11.dtd">
<!-- Uploaded to: SVG Repo, www.svgrepo.com, Generator: SVG Repo Mixer Tools -->
<svg height="800px" width="800px" version="1.1" id="_x34_" xmlns="http://www.w3.org/2000/svg" xmlns:xlink="http://www.w3.org/1999/xlink" 
	 viewBox="0 0 512 512"  xml:space="preserve">
<g>
	<g>
		<path style="fill:#FFFFFF;" d="M507.946,71.995c-0.526-1.802-1.126-3.604-1.802-5.406c-0.676-1.802-1.351-3.528-2.177-5.255
			c-1.502-3.378-3.228-6.756-5.18-9.91c-2.928-4.804-6.231-9.309-9.91-13.513c-1.276-1.351-2.553-2.778-3.829-4.054
			c-10.51-10.586-23.573-18.543-38.212-22.972c-8.408-2.628-17.342-3.979-26.651-3.979c-8.333,0-16.366,1.126-23.948,3.153h-0.075
			l1.426-48.422l0.376-12.537H0L3.528,71.169l7.733,267.486l0.6,20.645h374.241l0.675-25.449v-0.075l4.279-147.895
			c9.159,3.003,18.919,4.654,29.053,4.654c9.76,0,19.069-1.501,27.852-4.279c1.877-0.601,3.754-1.276,5.555-2.027
			c1.802-0.6,3.603-1.426,5.33-2.252c0.075,0,0.075,0,0.075,0c2.327-1.126,4.654-2.327,6.831-3.603c0.075,0,0.075,0,0.075,0
			c2.252-1.276,4.429-2.703,6.531-4.129c2.102-1.501,4.204-3.003,6.156-4.654h0.075c2.252-1.952,4.429-3.904,6.456-5.931
			c2.102-2.102,4.129-4.279,5.931-6.531c3.754-4.504,6.982-9.384,9.91-14.564c0.075-0.075,0-0.075,0-0.075
			c6.982-13.063,11.036-27.927,11.036-43.767C511.925,89.412,510.574,80.478,507.946,71.995z M450.965,129.576
			c-1.952,1.952-4.054,3.678-6.382,5.33h-0.075c-6.982,4.655-15.39,7.432-24.399,7.432c-5.255,0-10.21-0.901-14.864-2.628
			c-4.579-1.651-8.859-4.129-12.612-7.132l1.952-69.217c0.901-0.601,1.802-1.276,2.778-1.802c0.976-0.526,1.952-1.126,2.928-1.652
			c3.003-1.501,6.156-2.703,9.534-3.528c2.177-0.601,4.43-0.976,6.757-1.126c1.201-0.075,2.402-0.15,3.603-0.15
			c12.012,0,22.897,4.88,30.855,12.837c1.952,1.952,3.679,4.054,5.255,6.382c1.577,2.327,2.928,4.804,4.054,7.507
			c0.525,1.276,1.051,2.627,1.427,3.979c1.276,4.054,1.951,8.408,1.951,12.913c0,7.582-1.877,14.639-5.255,20.795
			C456.521,123.27,453.968,126.648,450.965,129.576z"/>
		<g>
			<g>
				<path style="fill:#64371A;" d="M189.236,179.013c-4.473,11.044-10.268,14.648-17.603,19.208
					c-7.557,4.701-16.838,10.469-23.516,24.63c-23.054-21.137-29.987-60.983-14.724-98.666
					c18.569-45.847,62.965-71.132,99.162-56.471c0.507,0.205,1.009,0.416,1.503,0.636c-4.473,11.024-10.261,14.623-17.592,19.181
					c-8.127,5.053-18.244,11.343-24.978,27.969c-6.734,16.627-3.845,28.184-1.526,37.468
					C192.056,161.348,193.71,167.969,189.236,179.013z"/>
			</g>
			<g>
				<path style="fill:#64371A;" d="M264.47,177.274c-18.569,45.847-62.965,71.132-99.162,56.471
					c-0.508-0.206-1.009-0.417-1.503-0.636c4.473-11.025,10.263-14.626,17.594-19.184c8.126-5.053,18.244-11.343,24.978-27.969
					c6.734-16.627,3.845-28.184,1.526-37.468c-2.095-8.38-3.748-15,0.725-26.044c4.473-11.044,10.266-14.644,17.602-19.204
					c7.557-4.701,16.838-10.469,23.516-24.63C272.8,99.746,279.733,139.591,264.47,177.274z"/>
			</g>
		</g>
	</g>
	<path style="opacity:0.05;fill:#060001;" d="M508.021,72.07l-0.075-0.075c-0.526-1.802-1.126-3.604-1.802-5.406
		c-0.676-1.802-1.351-3.528-2.177-5.255c-1.502-3.453-3.228-6.756-5.18-9.91c-2.853-4.804-6.231-9.309-9.91-13.513
		c-1.276-1.351-2.553-2.778-3.829-4.054c-10.51-10.586-23.573-18.543-38.212-22.972c-8.408-2.628-17.342-3.979-26.651-3.979
		c-8.333,0-16.366,1.126-23.948,3.153l1.351-48.422l0.376-12.537H2.027l61.786,61.785l188.584,188.584l134.381,134.381l0.075,0.075
		l4.279-147.969c9.159,3.003,18.919,4.654,29.053,4.654c9.685,0,18.994-1.502,27.777-4.354c1.952-0.601,3.754-1.201,5.555-2.027
		c1.802-0.6,3.603-1.426,5.33-2.252c0.075,0,0.075,0,0.075,0c2.327-1.126,4.654-2.327,6.831-3.603c0.075,0,0.075,0,0.075,0
		c2.252-1.276,4.429-2.703,6.531-4.129c2.102-1.501,4.204-3.003,6.156-4.654h0.075c2.252-1.952,4.429-3.904,6.456-5.931
		c2.102-2.102,4.129-4.279,5.931-6.531c3.829-4.504,7.132-9.384,9.91-14.564c0.075-0.075,0-0.075,0-0.075
		C508.021,129.501,512,114.562,512,98.796C512,89.487,510.648,80.553,508.021,72.07z M458.473,119.516
		c-1.952,3.754-4.505,7.132-7.507,10.06c-1.952,2.027-4.129,3.829-6.382,5.33h-0.075c-6.982,4.804-15.315,7.507-24.324,7.507
		c-5.255,0-10.285-0.901-14.94-2.703c-4.654-1.576-8.859-4.054-12.612-7.057v-0.075l2.027-69.142
		c0.901-0.601,1.802-1.201,2.702-1.877c0.976-0.526,1.952-1.126,2.928-1.652c3.003-1.501,6.156-2.703,9.534-3.528
		c2.177-0.601,4.43-0.976,6.757-1.126c1.201-0.075,2.402-0.15,3.603-0.15c12.012,0,22.897,4.88,30.855,12.837
		c1.952,1.952,3.679,4.054,5.255,6.382c1.577,2.327,2.928,4.804,4.054,7.507c0.525,1.276,1.051,2.627,1.427,3.979
		c1.351,4.129,2.027,8.483,2.027,12.988C463.803,106.303,461.851,113.36,458.473,119.516z"/>
</g>
</svg>