<?xml version="1.0" encoding="utf-8"?>
<!-- Uploaded to: SVG Repo, www.svgrepo.com, Generator: SVG Repo Mixer Tools -->
<svg version="1.1" id="Uploaded to svgrepo.com" xmlns="http://www.w3.org/2000/svg" xmlns:xlink="http://www.w3.org/1999/xlink" 
	 width="800px" height="800px" viewBox="0 0 32 32" xml:space="preserve">
<style type="text/css">
	.flatshadows_een{fill:#FDFFFF;}
	.flatshadows_twee{fill:#E1E5E5;}
	.flatshadows_drie{fill:#C4CCCC;}
	.st0{fill:#A3AFAF;}
	.st1{fill:none;}
	.st2{fill:#8D9999;}
	.st3{fill:#737F7F;}
	.st4{fill:#FDFFFF;}
	.st5{fill:#E1E5E5;}
	.st6{fill:#C4CCCC;}
	.st7{fill:#FFFFFF;}
</style>
<g>
	<path class="flatshadows_twee" d="M15.243,16.757c-2.343-2.343-6.142-2.343-8.485,0c-0.938,0.938-4.062,4.062-5,5
		c-2.343,2.343-2.343,6.142,0,8.485c2.343,2.343,6.142,2.343,8.485,0c0.938-0.938,4.062-4.062,5-5
		C17.586,22.9,17.586,19.1,15.243,16.757z M12.414,22.414l-5,5c-0.781,0.781-2.047,0.781-2.828,0c-0.781-0.781-0.781-2.047,0-2.828
		l5-5c0.781-0.781,2.047-0.781,2.828,0C13.195,20.367,13.195,21.633,12.414,22.414z M30.243,1.757c-2.343-2.343-6.142-2.343-8.485,0
		c-0.938,0.938-4.062,4.062-5,5c-2.343,2.343-2.343,6.142,0,8.485c2.343,2.343,6.142,2.343,8.485,0c0.938-0.938,4.062-4.062,5-5
		C32.586,7.899,32.586,4.1,30.243,1.757z M27.414,7.414l-5,5c-0.781,0.781-2.047,0.781-2.828,0c-0.781-0.781-0.781-2.047,0-2.828
		l5-5c0.781-0.781,2.047-0.781,2.828,0C28.195,5.367,28.195,6.633,27.414,7.414z"/>
	<g>
		<g>
			<path class="flatshadows_een" d="M11.828,23C11.047,23.781,9.781,23.781,9,23s-0.781-2.047,0-2.828L20.172,9
				C20.953,8.219,22.219,8.219,23,9s0.781,2.047,0,2.828L11.828,23z"/>
		</g>
		<g>
			<path class="flatshadows_een" d="M11.828,23C11.047,23.781,9.781,23.781,9,23s-0.781-2.047,0-2.828L20.172,9
				C20.953,8.219,22.219,8.219,23,9s0.781,2.047,0,2.828L11.828,23z"/>
		</g>
		<g>
			<path class="st1" d="M11.828,23C11.047,23.781,9.781,23.781,9,23s-0.781-2.047,0-2.828L20.172,9C20.953,8.219,22.219,8.219,23,9
				s0.781,2.047,0,2.828L11.828,23z"/>
		</g>
	</g>
	<g>
		<g>
			<path class="flatshadows_een" d="M11.828,23C11.047,23.781,9.781,23.781,9,23s-0.781-2.047,0-2.828L20.172,9
				C20.953,8.219,22.219,8.219,23,9s0.781,2.047,0,2.828L11.828,23z"/>
		</g>
		<g>
			<path class="flatshadows_een" d="M11.828,23C11.047,23.781,9.781,23.781,9,23s-0.781-2.047,0-2.828L20.172,9
				C20.953,8.219,22.219,8.219,23,9s0.781,2.047,0,2.828L11.828,23z"/>
		</g>
		<g>
			<path class="st1" d="M11.828,23C11.047,23.781,9.781,23.781,9,23s-0.781-2.047,0-2.828L20.172,9C20.953,8.219,22.219,8.219,23,9
				s0.781,2.047,0,2.828L11.828,23z"/>
		</g>
	</g>
	<path class="flatshadows_drie" d="M15.243,16.757c2.343,2.343,2.343,6.142,0,8.485c-0.128,0.128-0.302,0.302-0.5,0.5l-2.828-2.828
		l0.5-0.5c0.781-0.781,0.781-2.047,0-2.828L15.243,16.757z M22.914,11.914l-0.5,0.5c-0.781,0.781-2.047,0.781-2.828,0l-2.828,2.828
		c2.343,2.343,6.142,2.343,8.485,0c0.226-0.226,0.082-0.082,0.5-0.5L22.914,11.914z"/>
	<path class="flatshadows_een" d="M11.828,23C11.047,23.781,9.781,23.781,9,23s-0.781-2.047,0-2.828L20.172,9
		C20.953,8.219,22.219,8.219,23,9s0.781,2.047,0,2.828L11.828,23z"/>
</g>
</svg>