<?xml version="1.0" encoding="iso-8859-1"?>
<!-- Uploaded to: SVG Repo, www.svgrepo.com, Generator: SVG Repo Mixer Tools -->
<svg height="800px" width="800px" version="1.1" id="Capa_1" xmlns="http://www.w3.org/2000/svg" xmlns:xlink="http://www.w3.org/1999/xlink" 
	 viewBox="0 0 512 512" xml:space="preserve">
<g>
	<g>
		<path style="fill:#B8BAC0;" d="M359.063,381.352l-64-120.008c-1.391-2.609-4.109-4.234-7.063-4.234H21.859
			c-2.984,0-5.711,1.656-7.094,4.297c-9.641,18.492-14.531,38.078-14.531,58.211c0,45.094,24.82,87.328,68.297,116.547
			c-2.805,22.094-15.797,49.211-28.734,59.016c-2.484,1.883-3.656,5.031-2.992,8.078c0.508,2.32,2.133,5.313,7.039,6.375
			c0.703,0.148,6.109,1.25,14.5,1.25c19.453,0,54.938-5.922,84.93-43.383c17.18,3.758,34.977,5.664,52.961,5.664
			c60.398,0,116.492-21.273,153.898-58.367c0.93-0.914,1.617-2.047,2-3.297l7.5-24C360.273,385.461,360.07,383.242,359.063,381.352z
			"/>
	</g>
	<g>
		<path style="fill:#D7DBE0;" d="M421.734,353.609C479.172,315.516,512,260.18,512,201.117c0-110.281-114.844-200-256-200
			S0,90.836,0,201.117s114.844,200,256,200c24.094,0,47.906-2.609,70.883-7.766c39.148,49.75,85.703,57.531,111.016,57.531
			c10.727,0,17.641-1.398,18.547-1.594c1.547-0.336,6.25-1.344,7.375-6.453c0.664-3.047-0.5-6.211-2.992-8.094
			C442.68,420.992,425.086,384.047,421.734,353.609z"/>
	</g>
</g>
</svg>