<?xml version="1.0" encoding="iso-8859-1"?>
<!-- Uploaded to: SVG Repo, www.svgrepo.com, Generator: SVG Repo Mixer Tools -->
<svg height="800px" width="800px" version="1.1" id="Layer_1" xmlns="http://www.w3.org/2000/svg" xmlns:xlink="http://www.w3.org/1999/xlink" 
	 viewBox="0 0 512.001 512.001" xml:space="preserve">
<path style="fill:#424EDE;" d="M493.263,122.886L360.84,96.545c-7.89-2.299-16.759-0.341-22.982,5.881
	c-1.593,1.593-2.89,3.366-3.925,5.247c-0.037,0.067-0.082,0.132-0.118,0.199c-0.253,0.469-0.473,0.959-0.695,1.447
	c-0.104,0.233-0.226,0.461-0.324,0.697c-0.13,0.316-0.234,0.652-0.354,0.976c-0.403,1.106-0.752,2.243-0.99,3.435l-26.745,134.452
	c-2.507,12.605,5.678,24.854,18.283,27.363c1.533,0.304,3.061,0.451,4.564,0.451c10.876,0,20.596-7.662,22.799-18.736l16.665-83.777
	c13.588,24.801,20.818,52.754,20.818,81.821c0,94.095-76.553,170.648-170.646,170.648c-94.095,0-170.648-76.553-170.648-170.648
	S123.093,85.353,217.188,85.353c12.851,0,23.27-10.419,23.27-23.27s-10.419-23.27-23.27-23.27C97.431,38.812,0,136.243,0,256.001
	s97.431,217.188,217.188,217.188s217.188-97.431,217.188-217.188c0-36.34-8.867-71.317-25.572-102.463l75.383,14.994
	c12.608,2.509,24.856-5.679,27.363-18.284C514.055,137.644,505.871,125.393,493.263,122.886z"/>
<path style="fill:#EEBF00;" d="M217.191,132.073c-12.851,0-23.27,10.419-23.27,23.27v77.538h-77.539
	c-12.851,0-23.27,10.419-23.27,23.27s10.419,23.27,23.27,23.27h100.81c12.851,0,23.27-10.419,23.27-23.27V155.343
	C240.462,142.492,230.043,132.073,217.191,132.073z"/>
</svg>