<?xml version="1.0" encoding="iso-8859-1"?>
<!-- Uploaded to: SVG Repo, www.svgrepo.com, Generator: SVG Repo Mixer Tools -->
<svg version="1.1" id="Layer_1" xmlns="http://www.w3.org/2000/svg" xmlns:xlink="http://www.w3.org/1999/xlink" 
	 viewBox="0 0 512 512" xml:space="preserve">
<rect x="281.597" y="409.6" style="fill:#919CB0;" width="102.4" height="89.6"/>
<path style="fill:#FEDEA1;" d="M281.811,409.6l-0.7-12.058c-2.449-42.334-17.101-62.746-32.614-84.343
	c-15.189-21.154-30.899-43.034-30.899-82.799c0-63.522,51.678-115.2,115.2-115.2s115.2,51.678,115.2,115.2
	c0,39.765-15.71,61.645-30.899,82.799c-15.514,21.598-30.165,42.01-32.614,84.343l-0.7,12.058H281.811z"/>
<path style="fill:#FFE7E5;" d="M153.597,140.8c-35.294,0-64-28.706-64-64s28.706-64,64-64s64,28.706,64,64
	S188.891,140.8,153.597,140.8z"/>
<path style="fill:#FF877F;" d="M116.196,499.2L105,358.4H61.463L91.714,192h123.793l3.661,20.19l-0.29,2.039
	c-0.879,6.221-1.28,11.349-1.28,16.171c0,21.683,4.693,40.175,14.754,58.18l1.041,1.869l12.365,67.951h-43.52l-11.213,140.8H116.196
	z"/>
<g>
	<path style="fill:#573A32;" d="M153.597,153.6c42.351,0,76.8-34.449,76.8-76.8S195.948,0,153.597,0s-76.8,34.449-76.8,76.8
		S111.255,153.6,153.597,153.6z M153.597,25.6c28.279,0,51.2,22.921,51.2,51.2s-22.921,51.2-51.2,51.2s-51.2-22.921-51.2-51.2
		S125.318,25.6,153.597,25.6z"/>
	<path style="fill:#573A32;" d="M332.797,102.4c-53.163,0-98.833,32.597-118.153,78.839c-3.046-1.28-6.349-2.039-9.83-2.039h-16.657
		h-69.103h-16.657c-12.373,0-22.972,8.849-25.182,21.026l-25.6,140.8c-1.357,7.467,0.666,15.155,5.53,20.983
		c4.864,5.828,12.066,9.19,19.652,9.19h0.017h16.341l9.327,117.231c1.058,13.303,12.16,23.569,25.515,23.569h0.017h51.183h0.017
		c13.355,0,24.465-10.266,25.515-23.569l9.327-117.231h16.341h0.017c7.595,0,14.788-3.371,19.652-9.199
		c3.371-4.036,5.274-8.986,5.734-14.114c7.765,15.138,12.996,33.459,12.996,61.713v76.8c0,14.14,11.46,25.6,25.6,25.6h76.8
		c14.14,0,25.6-11.46,25.6-25.6v-76.8c0-46.601,14.182-66.253,30.601-89.003c15.659-21.692,33.399-46.285,33.399-90.197
		C460.797,159.821,403.377,102.4,332.797,102.4z M224.509,345.6h-34.091h-0.017l-11.204,140.8h-51.183l-11.196-140.8h-0.017H82.703
		h-5.905l25.6-140.8h38.409v77.875c0,7.074,5.726,12.8,12.8,12.8s12.8-5.726,12.8-12.8V204.8h38.409l1.391,7.646
		c-0.828,5.888-1.408,11.844-1.408,17.954c0,27.87,7.159,47.932,16.393,64.435l9.233,50.765H224.509z M371.197,486.4h-76.8
		c0,0,0-37.154,0-64h76.8C371.197,449.246,371.197,486.4,371.197,486.4z M371.709,396.8h-26.112V286.899l47.454-47.454
		c5.001-5.001,5.001-13.099,0-18.099c-5.001-5.001-13.099-5.001-18.099,0l-42.155,42.155l-42.146-42.146
		c-5.001-5.001-13.099-5.001-18.099,0c-5.001,5.001-5.001,13.099,0,18.099l47.454,47.454V396.8h-26.112
		c-5.188-89.515-63.497-93.005-63.497-166.4c0-56.55,45.841-102.4,102.4-102.4s102.4,45.85,102.4,102.4
		C435.197,303.795,376.889,307.285,371.709,396.8z"/>
</g>
</svg>